# xmcd CD database file
#
# Track frame offsets:
#	150
#	16234
#	36320
#	56202
#	72170
#	100512
#	121515
#	143217
#	160632
#	179370
#	208905
#	228857
#	244220
#	270730
#	287145
#	308415
#	335790
#
# Disc length: 4682 seconds
#
# Revision: 0
# Processed by: cddbd v1.5.1PL0 Copyright (c) Steve Scherf et al.
# Submitted via: CDex 1.51
#
DISCID=ef124811
DTITLE=Bryan Adams - The Best Of Me
DYEAR=1900
DGENRE=Rock
TTITLE0=Bryan Adams - The Best of Me
TTITLE1=Bryan Adams - Can't Stop This Thing We Started
TTITLE2=Bryan Adams - I'm Ready
TTITLE3=Bryan Adams - Summer of '69
TTITLE4=Bryan Adams - Let's Make a Night to Remember
TTITLE5=Bryan Adams - All for Love
TTITLE6=Bryan Adams - Have You Ever Really Loved a Woman
TTITLE7=Bryan Adams - Run to You
TTITLE8=Bryan Adams - Cloud Number Nine
TTITLE9=Bryan Adams - (Everything I Do) I Do It for You
TTITLE10=Bryan Adams - Back to You
TTITLE11=Bryan Adams - When You're Gone
TTITLE12=Bryan Adams - Please Forgive Me
TTITLE13=Bryan Adams - The Only Good Thing That Looks Good on Me Is You
TTITLE14=Bryan Adams - Inside Out
TTITLE15=Bryan Adams - 18 Til I Die
TTITLE16=DataTrack 17
EXTD=
EXTT0=
EXTT1=
EXTT2=
EXTT3=
EXTT4=
EXTT5=
EXTT6=
EXTT7=
EXTT8=
EXTT9=
EXTT10=
EXTT11=
EXTT12=
EXTT13=
EXTT14=
EXTT15=
EXTT16=
PLAYORDER=
